P3
14 12
255
0
0
255
0
0
255
0
0
255
0
0
255
0
0
255
0
0
255
0
0
255
0
0
255
0
0
255
0
0
0
0
0
0
0
0
0
0
0
0
0
0
0
0
0
255
0
0
255
0
0
255
0
0
255
0
0
0
0
0
0
0
0
0
0
0
0
0
0
0
252
255
0
252
255
0
252
255
0
252
255
0
0
0
0
0
0
255
0
0
255
0
0
255
0
0
0
252
255
0
252
255
0
252
255
0
252
255
0
252
255
0
252
255
0
252
255
0
252
255
0
252
255
0
0
0
0
0
0
255
0
0
255
0
0
0
252
255
0
252
255
0
252
255
0
252
255
0
252
255
0
252
255
0
252
255
0
252
255
0
252
255
0
252
255
0
0
0
0
0
0
255
0
0
0
252
255
0
252
255
0
252
255
0
252
255
0
252
255
0
252
255
0
252
255
0
252
255
0
252
255
0
252
255
0
252
255
0
0
0
0
0
0
0
252
255
0
252
255
0
252
255
0
252
255
0
252
255
0
252
255
0
252
255
0
252
255
0
252
255
0
252
255
0
252
255
0
252
255
0
0
0
0
0
0
0
252
255
0
252
255
0
252
255
0
252
255
0
252
255
0
252
255
0
252
255
0
252
255
0
252
255
0
252
255
0
252
255
0
252
255
0
0
0
0
0
0
255
0
0
0
252
255
0
252
255
0
252
255
0
252
255
0
252
255
0
252
255
0
252
255
0
252
255
0
252
255
0
252
255
0
252
255
0
0
0
0
0
0
255
0
0
255
0
0
0
252
255
0
252
255
0
252
255
0
252
255
0
252
255
0
252
255
0
252
255
0
252
255
0
252
255
0
252
255
0
0
0
0
0
0
255
0
0
255
0
0
255
0
0
0
252
255
0
252
255
0
252
255
0
252
255
0
252
255
0
252
255
0
252
255
0
252
255
0
252
255
0
0
0
0
0
0
255
0
0
255
0
0
255
0
0
255
0
0
0
0
0
0
0
0
0
0
0
0
0
0
0
252
255
0
252
255
0
252
255
0
252
255
0
0
0
0
0
0
255
0
0
255
0
0
255
0
0
255
0
0
255
0
0
255
0
0
255
0
0
255
0
0
255
0
0
0
0
0
0
0
0
0
0
0
0
0
0
0
