P3
# CREATOR: GIMP PNM Filter Version 1.1
9 9
255
0
0
255
0
0
255
0
0
0
0
0
0
0
0
0
0
0
0
0
0
0
0
0
255
0
0
255
0
0
255
0
0
255
0
0
0
79
79
79
79
79
79
79
79
79
0
0
0
0
0
255
0
0
255
0
0
255
0
0
0
79
79
79
79
79
79
79
79
79
79
79
79
79
79
79
0
0
0
0
0
255
0
0
0
79
79
79
79
79
79
79
79
79
79
79
79
79
79
79
79
79
79
79
79
79
0
0
0
0
0
0
79
79
79
79
79
79
79
79
79
79
79
79
79
79
79
79
79
79
79
79
79
0
0
0
0
0
0
79
79
79
79
79
79
79
79
79
79
79
79
79
79
79
79
79
79
79
79
79
0
0
0
0
0
255
0
0
0
79
79
79
79
79
79
79
79
79
79
79
79
79
79
79
0
0
0
0
0
255
0
0
255
0
0
255
0
0
0
79
79
79
79
79
79
79
79
79
0
0
0
0
0
255
0
0
255
0
0
255
0
0
255
0
0
0
0
0
0
0
0
0
0
0
0
0
0
0
0
0
255
0
0
255
