P3
19 19
255
0
0
255
0
0
255
0
0
255
0
0
255
0
0
255
0
0
255
240
0
0
240
0
0
240
0
0
240
0
0
240
0
0
240
0
0
240
0
0
0
0
255
0
0
255
0
0
255
0
0
255
0
0
255
0
0
255
0
0
255
0
0
255
0
0
255
0
0
255
240
0
0
240
0
0
240
0
0
240
0
0
240
0
0
240
0
0
240
0
0
240
0
0
240
0
0
240
0
0
240
0
0
0
0
255
0
0
255
0
0
255
0
0
255
0
0
255
0
0
255
0
0
255
240
0
0
240
0
0
240
0
0
0
0
255
0
0
255
0
0
255
0
0
255
0
0
255
0
0
255
0
0
255
240
0
0
240
0
0
240
0
0
0
0
255
0
0
255
0
0
255
0
0
255
0
0
255
240
0
0
240
0
0
240
0
0
0
0
255
0
0
255
0
0
255
0
0
255
0
0
255
0
0
255
0
0
255
0
0
255
0
0
255
240
0
0
240
0
0
240
0
0
0
0
255
0
0
255
0
0
255
240
0
0
240
0
0
240
0
0
240
0
0
240
0
0
0
0
255
0
0
255
0
0
255
0
0
255
0
0
255
0
0
255
0
0
255
240
0
0
240
0
0
240
0
0
240
0
0
240
0
0
0
0
255
0
0
255
240
0
0
240
0
0
0
0
255
240
0
0
240
0
0
240
0
0
0
0
255
0
0
255
0
0
255
0
0
255
0
0
255
240
0
0
240
0
0
240
0
0
0
0
255
240
0
0
240
0
0
0
0
255
240
0
0
240
0
0
0
0
255
0
0
255
0
0
255
240
0
0
240
0
0
240
0
0
0
0
255
0
0
255
0
0
255
240
0
0
240
0
0
240
0
0
0
0
255
0
0
255
0
0
255
240
0
0
240
0
0
240
0
0
240
0
0
0
0
255
0
0
255
0
0
255
0
0
255
240
0
0
240
0
0
240
0
0
0
0
255
240
0
0
240
0
0
240
0
0
0
0
255
0
0
255
0
0
255
0
0
255
240
0
0
240
0
0
240
0
0
240
0
0
0
0
255
0
0
255
0
0
255
0
0
255
0
0
255
240
0
0
240
0
0
240
0
0
240
0
0
240
0
0
0
0
255
0
0
255
0
0
255
0
0
255
0
0
255
240
0
0
240
0
0
240
0
0
240
0
0
0
0
255
0
0
255
0
0
255
0
0
255
0
0
255
0
0
255
240
0
0
240
0
0
240
0
0
0
0
255
0
0
255
0
0
255
0
0
255
0
0
255
0
0
255
240
0
0
240
0
0
240
0
0
240
0
0
0
0
255
0
0
255
0
0
255
0
0
255
0
0
255
240
0
0
240
0
0
240
0
0
240
0
0
240
0
0
0
0
255
0
0
255
0
0
255
0
0
255
0
0
255
240
0
0
240
0
0
240
0
0
240
0
0
0
0
255
0
0
255
0
0
255
0
0
255
240
0
0
240
0
0
240
0
0
0
0
255
240
0
0
240
0
0
240
0
0
0
0
255
0
0
255
0
0
255
0
0
255
240
0
0
240
0
0
240
0
0
240
0
0
0
0
255
0
0
255
0
0
255
240
0
0
240
0
0
240
0
0
0
0
255
0
0
255
0
0
255
240
0
0
240
0
0
240
0
0
0
0
255
0
0
255
0
0
255
240
0
0
240
0
0
0
0
255
240
0
0
240
0
0
0
0
255
240
0
0
240
0
0
240
0
0
0
0
255
0
0
255
0
0
255
0
0
255
0
0
255
240
0
0
240
0
0
240
0
0
0
0
255
240
0
0
240
0
0
0
0
255
0
0
255
240
0
0
240
0
0
240
0
0
240
0
0
240
0
0
0
0
255
0
0
255
0
0
255
0
0
255
0
0
255
0
0
255
0
0
255
240
0
0
240
0
0
240
0
0
240
0
0
240
0
0
0
0
255
0
0
255
0
0
255
240
0
0
240
0
0
240
0
0
0
0
255
0
0
255
0
0
255
0
0
255
0
0
255
0
0
255
0
0
255
0
0
255
0
0
255
240
0
0
240
0
0
240
0
0
0
0
255
0
0
255
0
0
255
0
0
255
0
0
255
240
0
0
240
0
0
240
0
0
0
0
255
0
0
255
0
0
255
0
0
255
0
0
255
0
0
255
0
0
255
240
0
0
240
0
0
240
0
0
0
0
255
0
0
255
0
0
255
0
0
255
0
0
255
0
0
255
0
0
255
240
0
0
240
0
0
240
0
0
240
0
0
240
0
0
240
0
0
240
0
0
240
0
0
240
0
0
240
0
0
240
0
0
0
0
255
0
0
255
0
0
255
0
0
255
0
0
255
0
0
255
0
0
255
0
0
255
0
0
255
0
0
255
240
0
0
240
0
0
240
0
0
240
0
0
240
0
0
240
0
0
240
0
0
0
0
255
0
0
255
0
0
255
0
0
255
0
0
255
0
0
255
