P3
# CREATOR: GIMP PNM Filter Version 1.1
27 40
255
0
0
255
0
0
255
0
0
255
0
0
255
0
0
255
0
0
255
0
0
0
0
0
0
0
0
0
0
0
0
0
0
0
0
0
0
0
0
0
0
0
0
0
0
0
0
0
0
0
0
0
0
0
0
0
0
0
0
0
0
0
0
0
0
0
255
0
0
255
0
0
255
0
0
255
0
0
255
0
0
255
0
0
255
0
0
255
0
0
255
0
0
255
0
0
255
0
0
255
0
0
0
133
114
108
110
107
107
110
107
107
110
107
107
110
107
107
110
107
107
110
107
107
110
107
107
110
107
107
110
107
107
133
93
81
110
107
107
110
107
107
0
0
0
0
0
255
0
0
255
0
0
255
0
0
255
0
0
255
0
0
255
0
0
255
0
0
255
0
0
255
0
0
255
0
0
255
0
0
255
0
0
0
133
114
108
110
107
107
110
107
107
110
107
107
110
107
107
110
107
107
110
107
107
110
107
107
110
107
107
110
107
107
110
107
107
110
107
107
110
107
107
0
0
0
0
0
255
0
0
255
0
0
255
0
0
255
0
0
255
0
0
255
0
0
255
0
0
255
0
0
255
0
0
255
0
0
255
0
0
255
0
0
0
110
107
107
110
107
107
110
107
107
110
107
107
110
107
107
110
107
107
110
107
107
110
107
107
110
107
107
110
107
107
110
107
107
110
107
107
110
107
107
0
0
0
0
0
255
0
0
255
0
0
255
0
0
255
0
0
255
0
0
255
0
0
255
0
0
255
0
0
255
0
0
255
0
0
255
0
0
255
0
0
0
110
107
107
110
107
107
110
107
107
110
107
107
55
53
53
55
53
53
55
53
53
55
53
53
110
107
107
110
107
107
55
53
53
55
53
53
55
53
53
55
53
53
0
0
255
0
0
255
0
0
255
0
0
255
0
0
255
0
0
255
0
0
255
0
0
255
0
0
255
0
0
255
0
0
255
0
0
255
0
0
0
110
107
107
110
107
107
110
107
107
110
107
107
55
53
53
255
60
0
255
0
0
55
53
53
110
107
107
110
107
107
55
53
53
255
60
0
255
0
0
55
53
53
0
0
255
0
0
255
0
0
255
0
0
255
0
0
255
0
0
255
0
0
255
0
0
255
0
0
255
0
0
255
0
0
255
0
0
255
0
0
0
110
107
107
110
107
107
110
90
90
110
107
107
55
53
53
255
0
0
255
60
0
55
53
53
110
107
107
110
107
107
55
53
53
255
0
0
255
60
0
55
53
53
0
0
255
0
0
255
0
0
255
0
0
255
0
0
255
0
0
255
0
0
255
0
0
255
0
0
255
0
0
255
0
0
255
0
0
255
0
0
0
110
107
107
110
107
107
110
107
107
110
107
107
55
53
53
55
53
53
55
53
53
55
53
53
55
53
53
110
107
107
55
53
53
55
53
53
55
53
53
55
53
53
0
0
255
0
0
255
0
0
255
0
0
255
0
0
255
0
0
255
0
0
255
0
0
255
0
0
255
0
0
255
0
0
255
0
0
255
0
0
0
110
107
107
110
107
107
110
107
107
110
107
107
110
107
107
110
107
107
110
107
107
110
107
107
110
107
107
110
107
107
110
107
107
110
107
107
110
107
107
0
0
0
0
0
255
0
0
255
0
0
255
0
0
255
0
0
255
0
0
255
0
0
255
0
0
255
0
0
255
0
0
255
0
0
255
0
0
255
0
0
0
110
107
107
110
107
107
110
107
107
110
107
107
110
107
107
110
107
107
110
107
107
55
53
53
55
53
53
55
53
53
55
53
53
55
53
53
110
107
107
0
0
0
0
0
255
0
0
255
0
0
255
0
0
255
0
0
255
0
0
255
0
0
255
0
0
255
0
0
255
0
0
255
0
0
255
0
0
255
0
0
0
110
107
107
110
107
107
110
107
107
110
107
107
110
107
107
110
107
107
110
107
107
55
53
53
110
107
107
110
107
107
110
107
107
55
53
53
110
107
107
0
0
0
0
0
255
0
0
255
0
0
255
0
0
255
0
0
255
0
0
255
0
0
255
0
0
255
0
0
255
0
0
255
0
0
255
0
0
255
0
0
0
110
107
107
110
107
107
110
107
107
110
107
107
110
107
107
110
107
107
110
107
107
55
53
53
55
53
53
55
53
53
55
53
53
55
53
53
110
107
107
0
0
0
0
0
255
0
0
255
0
0
255
0
0
255
0
0
255
0
0
255
0
0
255
0
0
255
0
0
255
0
0
255
0
0
255
0
0
255
0
0
0
110
107
107
110
107
107
110
107
107
110
107
107
110
107
107
110
90
90
110
107
107
110
107
107
110
107
107
110
107
107
110
107
107
110
107
107
133
93
81
0
0
0
0
0
255
0
0
255
0
0
255
0
0
255
0
0
255
0
0
255
0
0
255
0
0
255
0
0
255
0
0
255
0
0
0
0
0
0
0
0
0
0
0
0
0
0
0
0
0
0
0
0
0
0
0
0
0
0
0
0
0
0
0
0
0
0
0
0
0
0
0
0
0
0
0
0
0
0
0
0
0
0
0
0
0
0
0
0
0
0
0
255
0
0
255
0
0
255
0
0
255
0
0
255
0
0
255
0
0
255
0
0
255
0
0
0
143
143
143
143
143
143
143
143
143
143
143
143
143
143
143
143
143
143
143
143
143
143
143
143
143
143
143
143
143
143
143
143
143
143
143
143
143
143
143
143
143
143
143
143
143
143
143
143
143
143
143
0
0
0
0
0
255
0
0
255
0
0
255
0
0
255
0
0
255
0
0
255
0
0
255
0
0
255
0
0
0
143
143
143
143
143
143
110
107
107
143
143
143
143
143
143
143
143
143
0
0
0
143
143
143
143
143
143
143
143
143
0
0
0
143
143
143
143
143
143
143
143
143
110
107
107
110
107
107
143
143
143
0
0
0
0
0
255
0
0
255
0
0
255
0
0
255
0
0
255
0
0
255
0
0
255
0
0
255
0
0
0
143
143
143
143
143
143
143
143
143
143
143
143
143
143
143
143
143
143
0
0
0
143
143
143
143
143
143
143
143
143
0
0
0
143
143
143
143
143
143
143
143
143
143
143
143
143
143
143
143
143
143
0
0
0
0
0
255
0
0
255
0
0
255
0
0
255
0
0
255
0
0
255
0
0
255
0
0
255
0
0
0
143
143
143
143
143
143
143
143
143
143
143
143
143
143
143
143
143
143
0
0
0
143
143
143
143
143
143
143
143
143
0
0
0
143
143
143
143
143
143
143
143
143
143
143
143
143
143
143
143
143
143
0
0
0
0
0
255
0
0
255
0
0
255
0
0
255
0
0
255
0
0
255
0
0
255
0
0
255
0
0
0
143
143
143
143
143
143
143
143
143
143
143
143
143
143
143
143
143
143
0
0
0
143
143
143
143
143
143
143
143
143
0
0
0
143
143
143
143
143
143
143
143
143
143
143
143
143
143
143
143
143
143
0
0
0
0
0
255
0
0
255
0
0
255
0
0
255
0
0
255
0
0
255
0
0
255
0
0
255
0
0
0
143
143
143
143
143
143
143
143
143
143
143
143
143
143
143
143
143
143
0
0
0
143
143
143
143
143
143
143
143
143
0
0
0
143
143
143
143
143
143
143
143
143
143
143
143
143
143
143
143
143
143
0
0
0
0
0
255
0
0
255
0
0
255
0
0
255
0
0
255
0
0
255
0
0
255
0
0
255
0
0
0
143
143
143
143
143
143
143
143
143
143
143
143
143
143
143
143
143
143
0
0
0
143
143
143
110
107
107
110
107
107
0
0
0
143
143
143
143
143
143
143
143
143
143
143
143
143
143
143
143
143
143
0
0
0
0
0
255
0
0
255
0
0
255
0
0
255
0
0
255
0
0
255
0
0
255
0
0
255
0
0
0
143
143
143
143
143
143
143
143
143
143
143
143
143
143
143
143
143
143
0
0
0
143
143
143
143
143
143
143
143
143
0
0
0
143
143
143
143
143
143
143
143
143
143
143
143
143
143
143
143
143
143
0
0
0
0
0
255
0
0
255
0
0
255
0
0
255
0
0
255
0
0
255
0
0
255
0
0
255
0
0
0
143
143
143
143
143
143
143
143
143
110
107
107
110
107
107
143
143
143
0
0
0
143
143
143
143
143
143
143
143
143
0
0
0
143
143
143
143
143
143
143
143
143
143
143
143
143
143
143
143
143
143
0
0
0
0
0
255
0
0
255
0
0
255
0
0
255
0
0
255
0
0
255
0
0
255
0
0
255
0
0
0
143
143
143
143
143
143
143
143
143
143
143
143
110
90
90
143
143
143
0
0
0
143
143
143
143
143
143
143
143
143
0
0
0
143
143
143
143
143
143
143
143
143
143
143
143
143
143
143
143
143
143
0
0
0
0
0
255
0
0
255
0
0
255
0
0
255
0
0
255
0
0
255
0
0
255
0
0
255
0
0
0
143
143
143
143
143
143
143
143
143
143
143
143
143
143
143
143
143
143
0
0
0
143
143
143
143
143
143
143
143
143
0
0
0
143
143
143
143
143
143
143
143
143
110
107
107
110
107
107
143
143
143
0
0
0
0
0
255
0
0
255
0
0
255
0
0
255
0
0
255
0
0
255
0
0
255
0
0
255
0
0
0
143
143
143
143
143
143
143
143
143
143
143
143
143
143
143
143
143
143
0
0
0
143
143
143
143
143
143
143
143
143
0
0
0
143
143
143
143
143
143
143
143
143
110
107
107
143
143
143
143
143
143
0
0
0
0
0
255
0
0
255
0
0
255
0
0
255
0
0
255
0
0
255
0
0
255
0
0
255
0
0
0
143
143
143
143
143
143
143
143
143
143
143
143
143
143
143
143
143
143
0
0
0
143
143
143
143
143
143
143
143
143
0
0
0
143
143
143
143
143
143
143
143
143
143
143
143
143
143
143
143
143
143
0
0
0
0
0
255
0
0
255
0
0
255
0
0
255
0
0
255
0
0
255
0
0
255
0
0
255
0
0
0
143
143
143
143
143
143
143
143
143
143
143
143
143
143
143
143
143
143
0
0
0
143
143
143
143
143
143
143
143
143
0
0
0
143
143
143
143
143
143
143
143
143
143
143
143
143
143
143
143
143
143
0
0
0
0
0
255
0
0
255
0
0
255
0
0
255
0
0
255
0
0
255
0
0
255
0
0
255
0
0
0
0
0
0
0
0
0
0
0
0
0
0
0
0
0
0
0
0
0
0
0
0
143
143
143
143
143
143
143
143
143
0
0
0
0
0
0
0
0
0
0
0
0
0
0
0
0
0
0
0
0
0
0
0
0
0
0
255
0
0
255
0
0
255
0
0
255
0
0
255
0
0
255
0
0
255
0
0
255
0
0
0
143
143
143
143
143
143
143
143
143
143
143
143
143
143
143
143
143
143
0
0
0
143
143
143
143
143
143
143
143
143
0
0
0
143
143
143
143
143
143
143
143
143
143
143
143
143
143
143
143
143
143
0
0
0
0
0
255
0
0
255
0
0
255
0
0
255
0
0
255
0
0
255
0
0
255
0
0
255
0
0
0
143
143
143
143
143
143
110
107
107
110
107
107
143
143
143
143
143
143
0
0
0
143
143
143
143
143
143
143
143
143
0
0
0
143
143
143
143
143
143
143
143
143
110
90
90
143
143
143
143
143
143
0
0
0
0
0
255
0
0
255
0
0
255
0
0
255
0
0
255
0
0
255
0
0
255
0
0
255
0
0
0
143
143
143
143
143
143
143
143
143
143
143
143
143
143
143
143
143
143
0
0
0
110
107
107
110
107
107
143
143
143
0
0
0
143
143
143
143
143
143
143
143
143
143
143
143
143
143
143
143
143
143
0
0
0
0
0
255
0
0
255
0
0
255
0
0
255
0
0
255
0
0
255
0
0
0
0
0
0
0
0
0
0
0
0
0
0
0
0
0
0
0
0
0
0
0
0
0
0
0
0
0
0
143
143
143
143
143
143
143
143
143
0
0
0
0
0
0
0
0
0
0
0
0
0
0
0
0
0
0
0
0
0
0
0
0
0
0
0
0
0
0
0
0
255
0
0
255
0
0
255
0
0
0
55
53
53
55
53
53
55
53
53
55
53
53
55
53
53
55
53
53
55
53
53
55
53
53
55
53
53
0
0
0
143
143
143
143
143
143
143
143
143
0
0
0
55
53
53
55
53
53
55
53
53
55
53
53
55
53
53
55
53
53
55
53
53
55
53
53
55
53
53
0
0
0
0
0
255
0
0
255
0
0
0
55
53
53
0
0
0
0
0
0
0
0
0
0
0
0
0
0
0
0
0
0
0
0
0
0
0
0
0
0
0
0
0
0
0
0
0
0
0
0
0
0
0
0
0
0
0
0
0
0
0
0
0
0
0
0
0
0
0
0
0
0
0
0
55
53
53
55
53
53
0
0
0
0
0
255
0
0
0
55
53
53
55
53
53
0
0
0
0
0
0
143
143
143
143
143
143
143
143
143
143
143
143
143
143
143
143
143
143
143
143
143
143
143
143
143
143
143
143
143
143
143
143
143
143
143
143
143
143
143
143
143
143
143
143
143
143
143
143
0
0
0
0
0
0
55
53
53
55
53
53
55
53
53
0
0
0
0
0
0
55
53
53
55
53
53
0
0
0
0
0
0
143
143
143
143
143
143
143
143
143
143
143
143
143
143
143
143
143
143
143
143
143
143
143
143
143
143
143
143
143
143
143
143
143
143
143
143
143
143
143
143
143
143
143
143
143
143
143
143
0
0
0
0
0
0
55
53
53
55
53
53
55
53
53
0
0
0
0
0
255
0
0
0
55
53
53
0
0
0
0
0
0
0
0
0
0
0
0
0
0
0
0
0
0
0
0
0
0
0
0
0
0
0
0
0
0
0
0
0
0
0
0
0
0
0
0
0
0
0
0
0
0
0
0
0
0
0
0
0
0
0
0
0
0
0
0
55
53
53
55
53
53
0
0
0
0
0
255
0
0
255
0
0
0
55
53
53
55
53
53
55
53
53
55
53
53
55
53
53
55
53
53
55
53
53
55
53
53
55
53
53
55
53
53
55
53
53
55
53
53
55
53
53
55
53
53
55
53
53
55
53
53
55
53
53
55
53
53
55
53
53
55
53
53
55
53
53
55
53
53
55
53
53
0
0
0
0
0
255
0
0
255
0
0
255
0
0
0
0
0
0
0
0
0
0
0
0
0
0
0
0
0
0
0
0
0
0
0
0
0
0
0
0
0
0
0
0
0
0
0
0
0
0
0
0
0
0
0
0
0
0
0
0
0
0
0
0
0
0
0
0
0
0
0
0
0
0
0
0
0
0
0
0
0
0
0
255
0
0
255
