P3
# CREATOR: GIMP PNM Filter Version 1.1
27 40
255
0
0
255
0
0
255
0
0
255
0
0
255
0
0
255
0
0
255
0
0
255
0
0
255
0
0
255
0
0
255
0
0
255
0
0
255
0
0
255
0
0
255
0
0
255
0
0
255
0
0
255
0
0
255
0
0
255
0
0
255
0
0
255
0
0
255
0
0
255
0
0
255
0
0
255
0
0
255
0
0
255
0
0
255
0
0
255
0
0
255
0
0
255
0
0
255
0
0
255
0
0
255
0
0
255
0
0
255
0
0
255
0
0
255
0
0
255
0
0
255
0
0
255
0
0
255
0
0
255
0
0
255
0
0
255
0
0
255
0
0
255
0
0
255
0
0
255
0
0
255
0
0
255
0
0
255
0
0
255
0
0
255
0
0
255
0
0
255
0
0
255
0
0
255
0
0
255
0
0
255
0
0
255
0
0
255
0
0
255
0
0
255
0
0
255
0
0
255
0
0
255
0
0
255
0
0
255
0
0
255
0
0
255
0
0
255
0
0
255
0
0
255
0
0
255
0
0
255
0
0
255
0
0
255
0
0
255
0
0
255
0
0
255
0
0
255
0
0
255
0
0
255
0
0
255
0
0
255
0
0
255
0
0
255
0
0
255
0
0
255
0
0
255
0
0
255
0
0
255
0
0
255
0
0
255
0
0
255
0
0
255
0
0
255
0
0
255
0
0
255
0
0
255
0
0
255
0
0
255
0
0
255
0
0
255
0
0
255
0
0
255
0
0
255
0
0
255
0
0
255
0
0
255
0
0
255
0
0
255
0
0
255
0
0
255
0
0
255
0
0
255
0
0
255
0
0
255
0
0
255
0
0
255
0
0
255
0
0
255
0
0
255
0
0
255
0
0
255
0
0
255
0
0
255
0
0
255
0
0
255
0
0
255
0
0
255
0
0
255
0
0
255
0
0
255
0
0
255
0
0
255
0
0
255
0
0
255
0
0
255
0
0
255
0
0
255
0
0
255
0
0
255
0
0
255
0
0
255
0
0
255
0
0
255
0
0
255
0
0
255
0
0
255
0
0
255
0
0
255
0
0
255
0
0
255
0
0
255
0
0
255
0
0
255
0
0
255
0
0
255
0
0
255
0
0
255
0
0
255
0
0
255
0
0
255
0
0
255
0
0
255
0
0
255
0
0
255
0
0
255
0
0
255
0
0
255
0
0
255
0
0
255
0
0
255
0
0
255
0
0
255
0
0
255
0
0
255
0
0
255
0
0
255
0
0
255
0
0
255
0
0
255
0
0
255
0
0
255
0
0
255
0
0
255
0
0
255
0
0
255
0
0
255
0
0
255
0
0
255
0
0
255
0
0
255
0
0
255
0
0
255
0
0
255
0
0
255
0
0
255
0
0
255
0
0
255
0
0
255
0
0
255
0
0
255
0
0
255
0
0
255
0
0
255
0
0
255
0
0
255
0
0
255
0
0
255
0
0
255
0
0
255
0
0
255
0
0
255
0
0
255
0
0
255
0
0
255
0
0
255
0
0
255
0
0
255
0
0
255
0
0
255
0
0
255
0
0
255
0
0
255
0
0
255
0
0
255
0
0
255
0
0
255
0
0
255
0
0
255
0
0
255
0
0
255
0
0
255
0
0
255
0
0
255
0
0
255
0
0
255
0
0
255
0
0
255
0
0
255
0
0
255
0
0
255
0
0
255
0
0
255
0
0
255
0
0
255
0
0
255
0
0
255
0
0
255
0
0
255
0
0
255
0
0
255
0
0
255
0
0
255
0
0
255
0
0
255
0
0
255
0
0
255
0
0
255
0
0
255
0
0
255
0
0
255
0
0
255
0
0
255
0
0
255
0
0
255
0
0
255
0
0
255
0
0
255
0
0
255
0
0
255
0
0
255
0
0
255
0
0
255
0
0
255
0
0
255
0
0
255
0
0
255
0
0
255
0
0
255
0
0
255
0
0
255
0
0
255
0
0
255
0
0
255
0
0
255
0
0
255
0
0
255
0
0
255
0
0
255
0
0
255
0
0
255
0
0
255
0
0
255
0
0
255
0
0
255
0
0
255
0
0
255
0
0
255
0
0
255
0
0
255
0
0
255
0
0
255
0
0
255
0
0
255
0
0
255
0
0
255
0
0
255
0
0
255
0
0
255
0
0
255
0
0
255
0
0
255
0
0
255
0
0
255
0
0
255
0
0
255
0
0
255
0
0
255
0
0
255
0
0
255
0
0
255
0
0
255
0
0
255
0
0
255
0
0
255
0
0
255
0
0
255
0
0
255
0
0
255
0
0
255
0
0
255
0
0
255
0
0
255
0
0
255
0
0
255
0
0
255
0
0
255
0
0
255
0
0
255
0
0
255
0
0
255
0
0
255
0
0
255
0
0
255
0
0
255
0
0
255
0
0
255
0
0
255
0
0
255
0
0
255
0
0
255
0
0
255
0
0
255
0
0
255
0
0
255
0
0
255
0
0
255
0
0
255
0
0
255
0
0
255
0
0
255
0
0
255
0
0
255
0
0
255
0
0
255
0
0
255
0
0
255
0
0
255
0
0
255
0
0
255
0
0
255
0
0
255
0
0
255
0
0
255
0
0
255
0
0
255
0
0
255
0
0
255
0
0
255
0
0
255
0
0
255
0
0
255
0
0
255
0
0
255
0
0
255
0
0
255
0
0
255
0
0
255
0
0
255
0
0
255
0
0
255
0
0
255
0
0
255
0
0
255
0
0
255
0
0
255
0
0
255
0
0
255
0
0
255
0
0
255
0
0
255
0
0
255
0
0
255
0
0
255
0
0
255
0
0
255
0
0
255
0
0
255
0
0
255
0
0
255
0
0
255
0
0
255
0
0
0
143
143
143
143
143
143
143
143
143
0
0
0
0
0
255
0
0
255
0
0
255
0
0
255
0
0
255
0
0
255
0
0
255
0
0
255
0
0
255
0
0
255
0
0
255
0
0
255
0
0
255
0
0
255
0
0
255
0
0
255
0
0
255
0
0
255
0
0
255
0
0
255
0
0
255
0
0
255
0
0
0
143
143
143
143
143
143
143
143
143
0
0
0
0
0
255
0
0
255
0
0
255
0
0
255
0
0
255
0
0
255
0
0
255
0
0
255
0
0
255
0
0
255
0
0
255
0
0
255
0
0
255
0
0
255
0
0
255
0
0
255
0
0
255
0
0
255
0
0
255
0
0
255
0
0
255
0
0
255
0
0
0
143
143
143
143
143
143
143
143
143
0
0
0
0
0
255
0
0
255
0
0
255
0
0
255
0
0
255
0
0
255
0
0
255
0
0
255
0
0
255
0
0
255
0
0
255
0
0
255
0
0
255
0
0
255
0
0
255
0
0
255
0
0
255
0
0
255
0
0
255
0
0
255
0
0
255
0
0
255
0
0
0
143
143
143
143
143
143
143
143
143
0
0
0
0
0
255
0
0
255
0
0
255
0
0
255
0
0
255
0
0
255
0
0
255
0
0
255
0
0
255
0
0
255
0
0
255
0
0
255
0
0
255
0
0
255
0
0
255
0
0
255
0
0
255
0
0
255
0
0
255
0
0
255
0
0
255
0
0
255
0
0
0
143
143
143
143
143
143
143
143
143
0
0
0
0
0
255
0
0
255
0
0
255
0
0
255
0
0
255
0
0
255
0
0
255
0
0
255
0
0
255
0
0
255
0
0
255
0
0
255
0
0
255
0
0
255
0
0
255
0
0
255
0
0
255
0
0
255
0
0
255
0
0
255
0
0
255
0
0
255
0
0
0
143
143
143
110
107
107
110
107
107
0
0
0
0
0
255
0
0
255
0
0
255
0
0
255
0
0
255
0
0
255
0
0
255
0
0
255
0
0
255
0
0
255
0
0
255
0
0
255
0
0
255
0
0
255
0
0
255
0
0
255
0
0
255
0
0
255
0
0
255
0
0
255
0
0
255
0
0
255
0
0
0
143
143
143
143
143
143
143
143
143
0
0
0
0
0
255
0
0
255
0
0
255
0
0
255
0
0
255
0
0
255
0
0
255
0
0
255
0
0
255
0
0
255
0
0
255
0
0
255
0
0
255
0
0
255
0
0
255
0
0
255
0
0
255
0
0
255
0
0
255
0
0
255
0
0
255
0
0
255
0
0
0
143
143
143
143
143
143
143
143
143
0
0
0
0
0
255
0
0
255
0
0
255
0
0
255
0
0
255
0
0
255
0
0
255
0
0
255
0
0
255
0
0
255
0
0
255
0
0
255
0
0
255
0
0
255
0
0
255
0
0
255
0
0
255
0
0
255
0
0
255
0
0
255
0
0
255
0
0
255
0
0
0
143
143
143
143
143
143
143
143
143
0
0
0
0
0
255
0
0
255
0
0
255
0
0
255
0
0
255
0
0
255
0
0
255
0
0
255
0
0
255
0
0
255
0
0
255
0
0
255
0
0
255
0
0
255
0
0
255
0
0
255
0
0
255
0
0
255
0
0
255
0
0
255
0
0
255
0
0
255
0
0
0
143
143
143
143
143
143
143
143
143
0
0
0
0
0
255
0
0
255
0
0
255
0
0
255
0
0
255
0
0
255
0
0
255
0
0
255
0
0
255
0
0
255
0
0
255
0
0
255
0
0
255
0
0
255
0
0
255
0
0
255
0
0
255
0
0
255
0
0
255
0
0
255
0
0
255
0
0
255
0
0
0
143
143
143
143
143
143
143
143
143
0
0
0
0
0
255
0
0
255
0
0
255
0
0
255
0
0
255
0
0
255
0
0
255
0
0
255
0
0
255
0
0
255
0
0
255
0
0
255
0
0
255
0
0
255
0
0
255
0
0
255
0
0
255
0
0
255
0
0
255
0
0
255
0
0
255
0
0
255
0
0
0
143
143
143
143
143
143
143
143
143
0
0
0
0
0
255
0
0
255
0
0
255
0
0
255
0
0
255
0
0
255
0
0
255
0
0
255
0
0
255
0
0
255
0
0
255
0
0
255
0
0
255
0
0
255
0
0
255
0
0
255
0
0
255
0
0
255
0
0
255
0
0
255
0
0
255
0
0
255
0
0
0
143
143
143
143
143
143
143
143
143
0
0
0
0
0
255
0
0
255
0
0
255
0
0
255
0
0
255
0
0
255
0
0
255
0
0
255
0
0
255
0
0
255
0
0
255
0
0
255
0
0
255
0
0
255
0
0
255
0
0
255
0
0
255
0
0
255
0
0
255
0
0
255
0
0
255
0
0
255
0
0
0
143
143
143
143
143
143
143
143
143
0
0
0
0
0
255
0
0
255
0
0
255
0
0
255
0
0
255
0
0
255
0
0
255
0
0
255
0
0
255
0
0
255
0
0
255
0
0
255
0
0
255
0
0
255
0
0
255
0
0
255
0
0
255
0
0
255
0
0
255
0
0
255
0
0
255
0
0
255
0
0
0
143
143
143
143
143
143
143
143
143
0
0
0
0
0
255
0
0
255
0
0
255
0
0
255
0
0
255
0
0
255
0
0
255
0
0
255
0
0
255
0
0
255
0
0
255
0
0
255
0
0
255
0
0
255
0
0
255
0
0
255
0
0
255
0
0
255
0
0
255
0
0
255
0
0
255
0
0
255
0
0
0
143
143
143
143
143
143
143
143
143
0
0
0
0
0
255
0
0
255
0
0
255
0
0
255
0
0
255
0
0
255
0
0
255
0
0
255
0
0
255
0
0
255
0
0
255
0
0
255
0
0
255
0
0
255
0
0
255
0
0
255
0
0
255
0
0
255
0
0
255
0
0
255
0
0
255
0
0
255
0
0
0
110
107
107
110
107
107
143
143
143
0
0
0
0
0
255
0
0
255
0
0
255
0
0
255
0
0
255
0
0
255
0
0
255
0
0
255
0
0
255
0
0
255
0
0
255
0
0
255
0
0
255
0
0
255
0
0
255
0
0
255
0
0
255
0
0
255
0
0
255
0
0
255
0
0
255
0
0
255
0
0
0
143
143
143
143
143
143
143
143
143
0
0
0
0
0
255
0
0
255
0
0
255
0
0
255
0
0
255
0
0
255
0
0
255
0
0
255
0
0
255
0
0
255
0
0
255
0
0
255
0
0
255
0
0
255
0
0
255
0
0
255
0
0
255
0
0
255
0
0
255
0
0
255
0
0
255
0
0
255
0
0
0
143
143
143
143
143
143
143
143
143
0
0
0
0
0
255
0
0
255
0
0
255
0
0
255
0
0
255
0
0
255
0
0
255
0
0
255
0
0
255
0
0
255
0
0
255
0
0
255
0
0
255
0
0
255
0
0
255
0
0
255
0
0
255
0
0
255
0
0
255
0
0
255
0
0
255
0
0
255
0
0
0
0
0
0
0
0
0
0
0
0
0
0
0
0
0
255
0
0
255
0
0
255
0
0
255
0
0
255
0
0
255
0
0
255
0
0
255
0
0
255
0
0
255
0
0
255
0
0
255
0
0
255
0
0
255
0
0
255
0
0
255
0
0
255
0
0
255
0
0
255
0
0
255
0
0
255
0
0
255
0
0
255
0
0
255
0
0
255
0
0
255
0
0
255
0
0
255
0
0
255
0
0
255
0
0
255
0
0
255
0
0
255
0
0
255
0
0
255
0
0
255
0
0
255
0
0
255
0
0
255
0
0
255
0
0
255
0
0
255
0
0
255
0
0
255
0
0
255
0
0
255
0
0
255
0
0
255
0
0
255
0
0
255
0
0
255
0
0
255
0
0
255
0
0
255
0
0
255
0
0
255
0
0
255
0
0
255
0
0
255
0
0
255
0
0
255
0
0
255
0
0
255
0
0
255
0
0
255
0
0
255
0
0
255
0
0
255
0
0
255
0
0
255
0
0
255
0
0
255
0
0
255
0
0
255
0
0
255
0
0
255
0
0
255
0
0
255
0
0
255
0
0
255
0
0
255
0
0
255
0
0
255
0
0
255
0
0
255
0
0
255
0
0
255
0
0
255
0
0
255
0
0
255
0
0
255
0
0
255
0
0
255
0
0
255
0
0
255
0
0
255
0
0
255
0
0
255
0
0
255
0
0
255
0
0
255
0
0
255
0
0
255
0
0
255
0
0
255
0
0
255
0
0
255
0
0
255
0
0
255
0
0
255
0
0
255
0
0
255
0
0
255
0
0
255
0
0
255
0
0
255
0
0
255
0
0
255
0
0
255
0
0
255
0
0
255
0
0
255
0
0
255
0
0
255
0
0
255
0
0
255
0
0
255
0
0
255
0
0
255
0
0
255
0
0
255
0
0
255
0
0
255
0
0
255
0
0
255
0
0
255
0
0
255
0
0
255
0
0
255
0
0
255
0
0
255
0
0
255
0
0
255
0
0
255
0
0
255
0
0
255
