P3
20 20
255
0
0
0
0
0
0
0
0
0
0
0
0
0
0
0
0
0
0
0
0
0
0
0
0
0
0
0
0
0
0
0
0
0
0
0
0
0
0
0
0
0
0
0
0
0
0
0
0
0
0
0
0
0
0
0
0
0
0
0
0
0
0
0
0
0
0
0
0
0
0
0
0
0
0
0
0
0
0
0
0
0
0
0
0
0
0
0
0
0
0
0
0
0
0
0
0
0
0
0
0
0
0
0
0
0
0
0
0
0
0
0
0
0
0
0
0
0
0
0
0
0
0
0
0
0
0
169
138
133
169
138
133
169
138
133
169
138
133
169
138
133
169
138
133
169
138
133
169
138
133
169
138
133
169
138
133
169
138
133
169
138
133
169
138
133
169
138
133
169
138
133
169
138
133
0
0
0
0
0
0
0
0
0
0
0
0
169
138
133
169
138
133
169
138
133
169
138
133
169
138
133
0
0
0
0
0
0
0
0
0
0
0
0
0
0
0
0
0
0
169
138
133
169
138
133
169
138
133
169
138
133
169
138
133
0
0
0
0
0
0
0
0
0
0
0
0
107
87
84
107
87
84
107
87
84
107
87
84
0
0
0
0
0
0
0
0
0
0
0
0
0
0
0
0
0
0
0
0
0
0
0
0
107
87
84
107
87
84
107
87
84
107
87
84
0
0
0
0
0
0
0
0
0
0
0
0
169
138
133
169
138
133
169
138
133
0
0
0
0
0
0
0
0
0
0
0
0
0
0
0
0
0
0
0
0
0
0
0
0
0
0
0
0
0
0
169
138
133
169
138
133
169
138
133
0
0
0
0
0
0
0
0
0
0
0
0
169
138
133
169
138
133
169
138
133
0
0
0
0
0
0
169
138
133
169
138
133
169
138
133
169
138
133
169
138
133
0
0
0
0
0
0
0
0
0
0
0
0
169
138
133
169
138
133
0
0
0
0
0
0
0
0
0
0
0
0
107
87
84
107
87
84
107
87
84
0
0
0
0
0
0
107
87
84
107
87
84
107
87
84
107
87
84
107
87
84
107
87
84
0
0
0
0
0
0
0
0
0
107
87
84
107
87
84
0
0
0
0
0
0
0
0
0
0
0
0
169
138
133
169
138
133
169
138
133
169
138
133
169
138
133
169
138
133
169
138
133
169
138
133
169
138
133
0
0
0
0
0
0
0
0
0
0
0
0
169
138
133
169
138
133
169
138
133
0
0
0
0
0
0
0
0
0
0
0
0
169
138
133
169
138
133
169
138
133
169
138
133
169
138
133
169
138
133
169
138
133
0
0
0
0
0
0
0
0
0
0
0
0
0
0
0
169
138
133
169
138
133
169
138
133
169
138
133
0
0
0
0
0
0
0
0
0
0
0
0
107
87
84
107
87
84
107
87
84
107
87
84
107
87
84
107
87
84
0
0
0
0
0
0
0
0
0
0
0
0
0
0
0
107
87
84
107
87
84
107
87
84
107
87
84
107
87
84
0
0
0
0
0
0
0
0
0
0
0
0
169
138
133
169
138
133
169
138
133
169
138
133
169
138
133
169
138
133
0
0
0
0
0
0
0
0
0
169
138
133
169
138
133
169
138
133
169
138
133
169
138
133
169
138
133
169
138
133
0
0
0
0
0
0
0
0
0
0
0
0
169
138
133
169
138
133
169
138
133
169
138
133
169
138
133
169
138
133
0
0
0
0
0
0
0
0
0
169
138
133
169
138
133
169
138
133
169
138
133
169
138
133
169
138
133
169
138
133
0
0
0
0
0
0
0
0
0
0
0
0
107
87
84
107
87
84
107
87
84
107
87
84
107
87
84
107
87
84
0
0
0
0
0
0
0
0
0
107
87
84
107
87
84
107
87
84
107
87
84
107
87
84
107
87
84
107
87
84
0
0
0
0
0
0
0
0
0
0
0
0
169
138
133
169
138
133
169
138
133
169
138
133
169
138
133
169
138
133
0
0
0
0
0
0
0
0
0
169
138
133
169
138
133
169
138
133
169
138
133
169
138
133
169
138
133
169
138
133
0
0
0
0
0
0
0
0
0
0
0
0
169
138
133
169
138
133
169
138
133
169
138
133
169
138
133
169
138
133
169
138
133
169
138
133
169
138
133
169
138
133
169
138
133
169
138
133
169
138
133
169
138
133
169
138
133
169
138
133
0
0
0
0
0
0
0
0
0
0
0
0
107
87
84
107
87
84
107
87
84
107
87
84
107
87
84
107
87
84
0
0
0
0
0
0
0
0
0
107
87
84
107
87
84
107
87
84
107
87
84
107
87
84
107
87
84
107
87
84
0
0
0
0
0
0
0
0
0
0
0
0
169
138
133
169
138
133
169
138
133
169
138
133
169
138
133
169
138
133
0
0
0
0
0
0
0
0
0
169
138
133
169
138
133
169
138
133
169
138
133
169
138
133
169
138
133
169
138
133
0
0
0
0
0
0
0
0
0
0
0
0
0
0
0
0
0
0
0
0
0
0
0
0
0
0
0
0
0
0
0
0
0
0
0
0
0
0
0
0
0
0
0
0
0
0
0
0
0
0
0
0
0
0
0
0
0
0
0
0
0
0
0
0
0
0
0
0
0
0
0
0
0
0
0
0
0
0
0
0
0
0
0
0
0
0
0
0
0
0
0
0
0
0
0
0
0
0
0
0
0
0
0
0
0
0
0
0
0
0
0
0
0
0
0
0
0
0
0
0
0
0
0
0
0
0
