P3
# CREATOR: GIMP PNM Filter Version 1.1
40 40
255
40
40
126
40
40
126
40
40
126
40
40
126
40
40
126
40
40
126
40
40
126
40
40
126
40
40
126
40
40
126
40
40
126
40
40
126
40
40
126
40
40
126
40
40
126
40
40
126
40
40
126
40
40
126
40
40
126
40
40
126
40
40
126
40
40
126
40
40
126
40
40
126
40
40
126
40
40
126
40
40
126
40
40
126
40
40
126
40
40
126
40
40
126
40
40
126
40
40
126
40
40
126
40
40
126
40
40
126
40
40
126
40
40
126
40
40
126
40
40
126
40
40
126
40
40
126
40
40
126
40
40
126
40
40
126
40
40
126
40
40
126
40
40
126
40
40
126
40
40
126
40
40
126
40
40
126
40
40
126
40
40
126
40
40
126
40
40
126
40
40
126
40
40
126
40
40
126
40
40
126
40
40
126
40
40
126
40
40
126
40
40
126
40
40
126
40
40
126
40
40
126
40
40
126
40
40
126
40
40
126
40
40
126
40
40
126
40
40
126
40
40
126
40
40
126
40
40
126
40
40
126
40
40
126
40
40
126
40
40
126
40
40
126
40
40
126
40
40
126
40
40
126
40
40
126
40
40
126
40
40
126
40
40
126
40
40
126
40
40
126
40
40
126
40
40
126
40
40
126
40
40
126
40
40
126
40
40
126
40
40
126
40
40
126
40
40
126
40
40
126
36
36
124
37
37
124
40
40
126
40
40
126
40
40
126
40
40
126
40
40
126
40
40
126
40
40
126
40
40
126
40
40
126
40
40
126
40
40
126
40
40
126
40
40
126
40
40
126
40
40
126
40
40
126
40
40
126
40
40
126
40
40
126
40
40
126
40
40
126
40
40
126
40
40
126
40
40
126
40
40
126
40
40
126
40
40
126
40
40
126
40
40
126
40
40
126
40
40
126
40
40
126
40
40
126
40
40
126
40
40
126
40
40
126
40
40
126
37
37
125
98
98
160
97
97
160
37
37
124
40
40
126
40
40
126
40
40
126
40
40
126
40
40
126
40
40
126
40
40
126
40
40
126
40
40
126
40
40
126
40
40
126
40
40
126
40
40
126
40
40
126
40
40
126
40
40
126
40
40
126
40
40
126
40
40
126
40
40
126
40
40
126
40
40
126
40
40
126
40
40
126
40
40
126
40
40
126
40
40
126
40
40
126
40
40
126
40
40
126
40
40
126
40
40
126
40
40
126
40
40
126
40
40
126
40
40
126
39
39
125
74
74
147
74
74
146
38
38
125
40
40
126
40
40
126
40
40
126
40
40
126
40
40
126
40
40
126
40
40
126
40
40
126
40
40
126
40
40
126
40
40
126
40
40
126
40
40
126
40
40
126
40
40
126
40
40
126
40
40
126
40
40
126
40
40
126
40
40
126
40
40
126
40
40
126
40
40
126
40
40
126
40
40
126
40
40
126
40
40
126
40
40
126
40
40
126
40
40
126
40
40
126
40
40
126
40
40
126
40
40
126
40
40
126
40
40
126
40
40
126
37
37
124
37
37
124
40
40
126
40
40
126
40
40
126
40
40
126
40
40
126
40
40
126
40
40
126
40
40
126
40
40
126
39
39
125
69
69
143
58
58
137
39
39
125
40
40
126
40
40
126
40
40
126
40
40
126
40
40
126
40
40
126
40
40
126
40
40
126
40
40
126
40
40
126
40
40
126
40
40
126
40
40
126
40
40
126
40
40
126
40
40
126
40
40
126
40
40
126
40
40
126
40
40
126
40
40
126
40
40
126
40
40
126
40
40
126
40
40
126
40
40
126
40
40
126
40
40
126
40
40
126
40
40
126
40
40
126
40
40
126
40
40
126
40
40
126
40
40
126
40
40
126
37
37
124
104
104
164
80
80
150
37
37
124
40
40
126
40
40
126
40
40
126
40
40
126
40
40
126
40
40
126
40
40
126
40
40
126
40
40
126
40
40
126
40
40
126
40
40
126
40
40
126
40
40
126
40
40
126
40
40
126
40
40
126
40
40
126
40
40
126
40
40
126
40
40
126
40
40
126
40
40
126
40
40
126
40
40
126
40
40
126
40
40
126
40
40
126
40
40
126
40
40
126
40
40
126
40
40
126
40
40
126
40
40
126
40
40
126
40
40
126
40
40
126
44
44
128
42
42
127
40
40
126
40
40
126
40
40
126
40
40
126
40
40
126
40
40
126
40
40
126
40
40
126
40
40
126
40
40
126
40
40
126
40
40
126
40
40
126
40
40
126
40
40
126
40
40
126
40
40
126
40
40
126
40
40
126
40
40
126
40
40
126
40
40
126
40
40
126
40
40
126
40
40
126
40
40
126
40
40
126
40
40
126
40
40
126
40
40
126
40
40
126
40
40
126
40
40
126
40
40
126
40
40
126
40
40
126
40
40
126
40
40
126
40
40
126
40
40
126
40
40
126
40
40
126
40
40
126
40
40
126
40
40
126
40
40
126
40
40
126
40
40
126
40
40
126
40
40
126
40
40
126
40
40
126
40
40
126
40
40
126
40
40
126
40
40
126
40
40
126
40
40
126
40
40
126
40
40
126
40
40
126
40
40
126
40
40
126
40
40
126
40
40
126
40
40
126
40
40
126
40
40
126
40
40
126
40
40
126
40
40
126
40
40
126
40
40
126
40
40
126
40
40
126
40
40
126
40
40
126
40
40
126
40
40
126
40
40
126
40
40
126
40
40
126
40
40
126
40
40
126
40
40
126
40
40
126
40
40
126
40
40
126
40
40
126
40
40
126
40
40
126
40
40
126
40
40
126
40
40
126
40
40
126
40
40
126
40
40
126
40
40
126
40
40
126
40
40
126
40
40
126
40
40
126
40
40
126
40
40
126
40
40
126
40
40
126
40
40
126
40
40
126
40
40
126
40
40
126
40
40
126
40
40
126
40
40
126
40
40
126
40
40
126
40
40
126
40
40
126
40
40
126
40
40
126
40
40
126
40
40
126
40
40
126
40
40
126
40
40
126
40
40
126
40
40
126
40
40
126
40
40
126
40
40
126
37
37
124
39
39
125
40
40
126
40
40
126
40
40
126
40
40
126
40
40
126
40
40
126
40
40
126
40
40
126
40
40
126
40
40
126
40
40
126
40
40
126
40
40
126
40
40
126
40
40
126
40
40
126
40
40
126
40
40
126
40
40
126
40
40
126
40
40
126
40
40
126
40
40
126
40
40
126
40
40
126
40
40
126
40
40
126
40
40
126
40
40
126
40
40
126
40
40
126
40
40
126
40
40
126
40
40
126
40
40
126
40
40
126
40
40
126
35
35
124
138
138
185
74
74
148
37
37
124
40
40
126
40
40
126
40
40
126
40
40
126
40
40
126
40
40
126
40
40
126
40
40
126
40
40
126
40
40
126
40
40
126
40
40
126
40
40
126
40
40
126
40
40
126
40
40
126
40
40
126
40
40
126
40
40
126
40
40
126
40
40
126
40
40
126
40
40
126
40
40
126
40
40
126
40
40
126
40
40
126
40
40
126
40
40
126
40
40
126
40
40
126
40
40
126
40
40
126
40
40
126
40
40
126
40
40
126
39
39
125
77
77
148
53
53
134
39
39
125
40
40
126
40
40
126
40
40
126
40
40
126
40
40
126
40
40
126
40
40
126
40
40
126
40
40
126
40
40
126
40
40
126
40
40
126
40
40
126
40
40
126
40
40
126
40
40
126
40
40
126
40
40
126
40
40
126
40
40
126
40
40
126
40
40
126
40
40
126
40
40
126
40
40
126
40
40
126
40
40
126
40
40
126
40
40
126
40
40
126
40
40
126
40
40
126
40
40
126
40
40
126
39
39
126
40
40
126
40
40
126
37
37
124
39
39
125
40
40
126
40
40
126
40
40
126
40
40
126
40
40
126
40
40
126
40
40
126
40
40
126
40
40
126
40
40
126
40
40
126
40
40
126
40
40
126
40
40
126
40
40
126
40
40
126
40
40
126
40
40
126
40
40
126
40
40
126
40
40
126
40
40
126
40
40
126
40
40
126
40
40
126
40
40
126
40
40
126
40
40
126
40
40
126
40
40
126
40
40
126
40
40
126
40
40
126
40
40
126
40
40
126
44
44
129
40
40
126
40
40
126
40
40
126
40
40
126
40
40
126
40
40
126
40
40
126
40
40
126
40
40
126
40
40
126
40
40
126
40
40
126
40
40
126
40
40
126
40
40
126
40
40
126
40
40
126
40
40
126
40
40
126
40
40
126
40
40
126
40
40
126
40
40
126
40
40
126
40
40
126
40
40
126
40
40
126
40
40
126
40
40
126
40
40
126
40
40
126
40
40
126
40
40
126
40
40
126
40
40
126
40
40
126
40
40
126
40
40
126
40
40
126
167
167
203
45
45
129
39
39
125
40
40
126
40
40
126
40
40
126
40
40
126
40
40
126
40
40
126
40
40
126
40
40
126
40
40
126
40
40
126
40
40
126
40
40
126
40
40
126
40
40
126
40
40
126
40
40
126
40
40
126
40
40
126
40
40
126
40
40
126
40
40
126
40
40
126
40
40
126
40
40
126
40
40
126
40
40
126
40
40
126
40
40
126
40
40
126
40
40
126
40
40
126
40
40
126
40
40
126
40
40
126
40
40
126
40
40
126
40
40
126
54
54
134
40
40
126
40
40
126
40
40
126
40
40
126
40
40
126
40
40
126
40
40
126
40
40
126
40
40
126
40
40
126
40
40
126
40
40
126
40
40
126
40
40
126
40
40
126
40
40
126
40
40
126
40
40
126
40
40
126
40
40
126
40
40
126
40
40
126
40
40
126
40
40
126
40
40
126
40
40
126
40
40
126
40
40
126
40
40
126
40
40
126
40
40
126
40
40
126
40
40
126
40
40
126
40
40
126
40
40
126
40
40
126
40
40
126
40
40
126
39
39
125
40
40
126
40
40
126
40
40
126
40
40
126
40
40
126
40
40
126
40
40
126
40
40
126
40
40
126
40
40
126
40
40
126
40
40
126
40
40
126
40
40
126
40
40
126
40
40
126
40
40
126
40
40
126
40
40
126
40
40
126
40
40
126
38
38
125
38
38
125
40
40
126
40
40
126
40
40
126
40
40
126
40
40
126
40
40
126
40
40
126
40
40
126
40
40
126
40
40
126
40
40
126
40
40
126
40
40
126
40
40
126
40
40
126
40
40
126
40
40
126
40
40
126
40
40
126
40
40
126
40
40
126
40
40
126
40
40
126
40
40
126
40
40
126
40
40
126
40
40
126
40
40
126
40
40
126
40
40
126
40
40
126
40
40
126
40
40
126
40
40
126
40
40
126
40
40
126
40
40
126
39
39
125
68
68
143
57
57
137
39
39
126
40
40
126
40
40
126
40
40
126
40
40
126
40
40
126
40
40
126
40
40
126
40
40
126
40
40
126
40
40
126
40
40
126
40
40
126
40
40
126
40
40
126
40
40
126
40
40
126
40
40
126
40
40
126
40
40
126
40
40
126
40
40
126
40
40
126
40
40
126
40
40
126
40
40
126
40
40
126
40
40
126
40
40
126
40
40
126
40
40
126
40
40
126
40
40
126
40
40
126
40
40
126
40
40
126
40
40
126
37
37
124
118
118
173
92
92
158
38
38
125
40
40
126
40
40
126
40
40
126
40
40
126
40
40
126
40
40
126
40
40
126
40
40
126
40
40
126
40
40
126
40
40
126
40
40
126
40
40
126
40
40
126
40
40
126
40
40
126
40
40
126
40
40
126
40
40
126
40
40
126
40
40
126
40
40
126
40
40
126
40
40
126
40
40
126
40
40
126
40
40
126
40
40
126
40
40
126
40
40
126
40
40
126
40
40
126
40
40
126
40
40
126
40
40
126
40
40
126
40
40
126
37
37
124
38
38
124
40
40
126
40
40
126
40
40
126
40
40
126
40
40
126
40
40
126
40
40
126
40
40
126
40
40
126
40
40
126
40
40
126
40
40
126
40
40
126
40
40
126
40
40
126
40
40
126
40
40
126
40
40
126
40
40
126
40
40
126
40
40
126
40
40
126
40
40
126
40
40
126
40
40
126
40
40
126
40
40
126
40
40
126
40
40
126
40
40
126
40
40
126
40
40
126
40
40
126
40
40
126
40
40
126
40
40
126
40
40
126
40
40
126
40
40
126
40
40
126
40
40
126
40
40
126
40
40
126
40
40
126
40
40
126
40
40
126
40
40
126
40
40
126
40
40
126
40
40
126
40
40
126
40
40
126
40
40
126
40
40
126
40
40
126
40
40
126
40
40
126
40
40
126
40
40
126
40
40
126
40
40
126
40
40
126
40
40
126
40
40
126
40
40
126
40
40
126
40
40
126
40
40
126
40
40
126
40
40
126
40
40
126
40
40
126
40
40
126
40
40
126
40
40
126
40
40
126
40
40
126
40
40
126
40
40
126
40
40
126
40
40
126
40
40
126
40
40
126
40
40
126
40
40
126
40
40
126
40
40
126
39
39
126
40
40
126
40
40
126
40
40
126
40
40
126
40
40
126
40
40
126
40
40
126
40
40
126
40
40
126
40
40
126
40
40
126
40
40
126
40
40
126
40
40
126
40
40
126
40
40
126
40
40
126
40
40
126
40
40
126
40
40
126
40
40
126
40
40
126
40
40
126
40
40
126
40
40
126
40
40
126
40
40
126
40
40
126
40
40
126
40
40
126
40
40
126
40
40
126
40
40
126
40
40
126
40
40
126
40
40
126
40
40
126
40
40
126
44
44
128
62
62
139
39
39
126
40
40
126
40
40
126
40
40
126
40
40
126
40
40
126
40
40
126
40
40
126
40
40
126
40
40
126
40
40
126
40
40
126
40
40
126
40
40
126
40
40
126
40
40
126
40
40
126
40
40
126
40
40
126
40
40
126
40
40
126
40
40
126
40
40
126
40
40
126
40
40
126
40
40
126
40
40
126
40
40
126
40
40
126
40
40
126
40
40
126
40
40
126
40
40
126
40
40
126
40
40
126
40
40
126
40
40
126
38
38
125
62
62
140
142
142
187
40
40
126
40
40
126
40
40
126
40
40
126
40
40
126
40
40
126
40
40
126
40
40
126
40
40
126
40
40
126
40
40
126
40
40
126
40
40
126
40
40
126
40
40
126
40
40
126
40
40
126
40
40
126
40
40
126
40
40
126
40
40
126
40
40
126
40
40
126
40
40
126
40
40
126
40
40
126
40
40
126
40
40
126
40
40
126
40
40
126
40
40
126
40
40
126
40
40
126
40
40
126
40
40
126
40
40
126
40
40
126
40
40
126
41
41
127
47
47
130
40
40
126
40
40
126
40
40
126
40
40
126
40
40
126
40
40
126
40
40
126
40
40
126
40
40
126
40
40
126
40
40
126
40
40
126
40
40
126
40
40
126
40
40
126
40
40
126
40
40
126
40
40
126
40
40
126
40
40
126
40
40
126
40
40
126
40
40
126
40
40
126
40
40
126
40
40
126
40
40
126
40
40
126
40
40
126
40
40
126
40
40
126
40
40
126
40
40
126
40
40
126
40
40
126
40
40
126
40
40
126
40
40
126
40
40
126
40
40
126
40
40
126
40
40
126
40
40
126
40
40
126
40
40
126
40
40
126
40
40
126
40
40
126
40
40
126
40
40
126
40
40
126
40
40
126
40
40
126
40
40
126
40
40
126
40
40
126
40
40
126
40
40
126
40
40
126
40
40
126
40
40
126
40
40
126
40
40
126
40
40
126
40
40
126
40
40
126
40
40
126
40
40
126
40
40
126
40
40
126
40
40
126
40
40
126
40
40
126
40
40
126
40
40
126
40
40
126
40
40
126
40
40
126
40
40
126
40
40
126
40
40
126
40
40
126
40
40
126
40
40
126
40
40
126
40
40
126
40
40
126
40
40
126
40
40
126
40
40
126
40
40
126
40
40
126
40
40
126
40
40
126
40
40
126
40
40
126
40
40
126
40
40
126
40
40
126
40
40
126
40
40
126
40
40
126
40
40
126
40
40
126
40
40
126
40
40
126
40
40
126
40
40
126
40
40
126
40
40
126
40
40
126
40
40
126
40
40
126
40
40
126
40
40
126
40
40
126
40
40
126
40
40
126
40
40
126
40
40
126
40
40
126
40
40
126
40
40
126
40
40
126
40
40
126
40
40
126
40
40
126
40
40
126
40
40
126
40
40
126
40
40
126
40
40
126
40
40
126
40
40
126
40
40
126
40
40
126
40
40
126
40
40
126
40
40
126
40
40
126
40
40
126
40
40
126
40
40
126
40
40
126
40
40
126
40
40
126
40
40
126
40
40
126
40
40
126
40
40
126
40
40
126
40
40
126
40
40
126
40
40
126
40
40
126
40
40
126
40
40
126
40
40
126
40
40
126
40
40
126
40
40
126
40
40
126
40
40
126
40
40
126
40
40
126
40
40
126
40
40
126
40
40
126
40
40
126
40
40
126
40
40
126
40
40
126
40
40
126
40
40
126
40
40
126
40
40
126
40
40
126
40
40
126
40
40
126
40
40
126
40
40
126
40
40
126
40
40
126
40
40
126
40
40
126
40
40
126
40
40
126
40
40
126
40
40
126
40
40
126
40
40
126
40
40
126
40
40
126
40
40
126
40
40
126
40
40
126
40
40
126
40
40
126
40
40
126
40
40
126
40
40
126
40
40
126
40
40
126
40
40
126
40
40
126
40
40
126
40
40
126
40
40
126
40
40
126
40
40
126
40
40
126
40
40
126
40
40
126
40
40
126
40
40
126
40
40
126
40
40
126
40
40
126
40
40
126
40
40
126
40
40
126
40
40
126
40
40
126
44
44
128
40
40
126
40
40
126
40
40
126
40
40
126
40
40
126
40
40
126
40
40
126
40
40
126
40
40
126
40
40
126
40
40
126
40
40
126
40
40
126
40
40
126
40
40
126
40
40
126
40
40
126
40
40
126
40
40
126
40
40
126
40
40
126
40
40
126
40
40
126
40
40
126
40
40
126
40
40
126
40
40
126
40
40
126
40
40
126
40
40
126
40
40
126
40
40
126
40
40
126
40
40
126
40
40
126
40
40
126
40
40
126
39
39
125
48
48
131
123
123
177
43
43
128
39
39
126
40
40
126
40
40
126
40
40
126
40
40
126
40
40
126
40
40
126
40
40
126
40
40
126
40
40
126
40
40
126
40
40
127
40
40
127
40
40
126
40
40
126
40
40
126
40
40
126
40
40
126
40
40
126
40
40
126
40
40
126
40
40
126
40
40
126
40
40
126
40
40
126
40
40
126
40
40
126
40
40
126
40
40
126
40
40
126
40
40
126
40
40
126
40
40
126
40
40
126
40
40
126
40
40
126
39
39
126
45
45
129
90
90
156
42
42
127
40
40
126
40
40
126
40
40
126
40
40
126
40
40
126
40
40
126
40
40
126
40
40
126
40
40
126
40
40
126
40
40
126
40
40
127
40
40
127
40
40
126
40
40
126
40
40
126
40
40
126
40
40
126
40
40
126
40
40
126
40
40
126
40
40
126
40
40
126
40
40
126
40
40
126
40
40
126
40
40
126
40
40
126
40
40
126
40
40
126
40
40
126
40
40
126
40
40
126
40
40
126
40
40
126
40
40
126
40
40
126
40
40
126
40
40
126
40
40
126
40
40
126
40
40
126
40
40
126
40
40
126
40
40
126
40
40
126
40
40
126
40
40
126
40
40
126
40
40
126
40
40
126
40
40
126
40
40
126
40
40
126
40
40
126
40
40
126
40
40
126
40
40
126
40
40
126
40
40
126
40
40
126
40
40
126
40
40
126
40
40
126
40
40
126
40
40
126
40
40
126
40
40
126
40
40
126
40
40
126
40
40
126
40
40
126
40
40
126
40
40
126
40
40
126
40
40
126
40
40
126
40
40
126
40
40
126
40
40
126
40
40
126
40
40
126
40
40
126
40
40
126
40
40
126
40
40
126
40
40
126
40
40
126
40
40
126
40
40
126
40
40
126
40
40
126
40
40
126
40
40
126
40
40
126
40
40
126
40
40
126
40
40
126
40
40
126
40
40
126
40
40
126
40
40
126
40
40
126
40
40
126
40
40
126
40
40
126
40
40
126
40
40
126
40
40
126
40
40
126
40
40
126
40
40
126
40
40
126
40
40
126
40
40
126
40
40
126
40
40
126
40
40
126
40
40
126
40
40
126
40
40
126
40
40
126
40
40
126
40
40
126
40
40
126
40
40
126
40
40
126
40
40
126
40
40
126
40
40
126
40
40
126
40
40
126
40
40
126
40
40
126
40
40
126
40
40
126
40
40
126
40
40
126
40
40
126
40
40
126
40
40
126
40
40
126
40
40
126
28
28
119
29
29
120
31
31
121
32
32
121
32
32
121
32
32
121
32
32
121
32
32
121
32
32
121
32
32
121
32
32
121
32
32
121
32
32
121
32
32
121
32
32
121
32
32
121
34
34
122
34
34
122
34
34
122
36
36
123
37
37
124
38
38
125
38
38
125
38
38
125
40
40
126
40
40
126
40
40
126
40
40
126
40
40
126
40
40
126
40
40
126
40
40
126
40
40
126
40
40
126
40
40
126
40
40
126
37
37
124
35
35
123
32
32
121
27
27
118
196
196
219
173
173
206
154
154
194
140
140
186
139
139
186
139
139
186
139
139
186
139
139
186
139
139
186
139
139
186
139
139
186
139
139
186
139
139
186
139
139
186
139
139
186
140
140
186
119
119
174
114
114
171
118
118
173
95
95
160
78
78
150
64
64
141
65
65
141
69
69
144
39
39
125
40
40
126
40
40
126
40
40
126
40
40
126
40
40
126
40
40
126
40
40
126
40
40
126
40
40
126
40
40
126
38
38
125
80
80
151
97
97
161
140
140
186
197
197
220
